<svg width="184" height="49" viewBox="0 0 184 49" fill="none" xmlns="http://www.w3.org/2000/svg">
<path d="M23.7305 28.6441C23.7305 25.2427 24.4226 22.2762 25.807 19.7449C27.1913 17.174 29.1096 15.1964 31.5618 13.8121C34.014 12.3882 36.8222 11.6763 39.9864 11.6763C44.0603 11.6763 47.4222 12.7046 50.0722 14.7613C51.309 15.6889 52.3575 16.7921 53.218 18.071C54.8435 20.4871 52.6559 23.3046 49.7439 23.3046C47.8141 23.3046 46.2276 21.9137 44.8268 20.5864C44.5961 20.3679 44.3472 20.1665 44.08 19.9822C42.9726 19.1516 41.5883 18.7363 39.9271 18.7363C37.5539 18.7363 35.6752 19.6065 34.2909 21.3468C32.9066 23.0475 32.2144 25.48 32.2144 28.6441C32.2144 31.7688 32.9066 34.2012 34.2909 35.9415C35.6752 37.6422 37.5539 38.4926 39.9271 38.4926C42.0432 38.4926 43.697 37.8972 44.8886 36.7063C46.2414 35.3542 47.7976 33.9837 49.7103 33.9837C52.6304 33.9837 54.8003 36.8159 53.1436 39.2205C52.2974 40.4489 51.2736 41.5312 50.0722 42.4676C47.3826 44.5639 44.0207 45.612 39.9864 45.612C36.8222 45.612 34.014 44.9198 31.5618 43.5355C29.1096 42.1116 27.1913 40.134 25.807 37.6027C24.4226 35.0318 23.7305 32.0456 23.7305 28.6441Z" fill="url(#paint0_linear_357_703)"/>
<path d="M67.5481 45.612C64.3839 45.612 61.5361 44.9198 59.0048 43.5355C56.4735 42.1116 54.4761 40.1143 53.0126 37.5434C51.5888 34.9725 50.8768 32.0061 50.8768 28.6441C50.8768 25.2822 51.6085 22.3158 53.072 19.7449C54.575 17.174 56.6119 15.1964 59.1828 13.8121C61.7537 12.3882 64.6212 11.6763 67.7854 11.6763C70.9495 11.6763 73.8171 12.3882 76.388 13.8121C78.9588 15.1964 80.976 17.174 82.4394 19.7449C83.9424 22.3158 84.6939 25.2822 84.6939 28.6441C84.6939 32.0061 83.9226 34.9725 82.3801 37.5434C80.8771 40.1143 78.8204 42.1116 76.21 43.5355C73.6391 44.9198 70.7518 45.612 67.5481 45.612ZM67.5481 38.374C69.051 38.374 70.4551 38.018 71.7604 37.3061C73.1051 36.5546 74.173 35.4471 74.9641 33.9837C75.7551 32.5202 76.1506 30.7404 76.1506 28.6441C76.1506 25.5195 75.32 23.1266 73.6589 21.4654C72.0372 19.7647 70.0398 18.9143 67.6667 18.9143C65.2936 18.9143 63.2962 19.7647 61.6746 21.4654C60.0925 23.1266 59.3014 25.5195 59.3014 28.6441C59.3014 31.7688 60.0727 34.1814 61.6152 35.8822C63.1973 37.5434 65.1749 38.374 67.5481 38.374Z" fill="url(#paint1_linear_357_703)"/>
<path d="M80.0482 28.5255C80.0482 25.2031 80.7008 22.2565 82.0061 19.6856C83.3508 17.1147 85.1702 15.1371 87.4643 13.7528C89.7583 12.3684 92.3094 11.6763 95.1176 11.6763C97.2534 11.6763 99.2903 12.1509 101.228 13.1001C103.166 14.0098 104.709 15.236 105.856 16.7785L110.385 19.7449L107.944 37.5434L105.856 40.2131C104.828 41.8348 103.384 43.14 101.525 44.1288C99.6661 45.1176 97.5105 45.612 95.0583 45.612C92.2896 45.612 89.7583 44.9001 87.4643 43.4762C85.1702 42.0523 83.3508 40.0549 82.0061 37.484C80.7008 34.8736 80.0482 31.8874 80.0482 28.5255ZM105.915 28.6441C105.915 26.627 105.52 24.9065 104.729 23.4826C103.938 22.0192 102.87 20.9117 101.525 20.1602C100.18 19.3692 98.7366 18.9736 97.1941 18.9736C95.6516 18.9736 94.2277 19.3494 92.9224 20.1009C91.6172 20.8524 90.5493 21.9598 89.7187 23.4233C88.9277 24.8471 88.5322 26.5479 88.5322 28.5255C88.5322 30.5031 88.9277 32.2434 89.7187 33.7464C90.5493 35.2098 91.6172 36.337 92.9224 37.1281C94.2672 37.9191 95.6911 38.3146 97.1941 38.3146C98.7366 38.3146 100.18 37.9389 101.525 37.1874C102.87 36.3964 103.938 35.2889 104.729 33.865C105.52 32.4016 105.915 30.6613 105.915 28.6441Z" fill="url(#paint2_linear_357_703)"/>
<path d="M142.681 27.9322C142.681 29.1188 142.602 30.1867 142.444 31.1359H118.416C118.613 33.509 119.444 35.368 120.907 36.7128C122.371 38.0575 124.17 38.7299 126.306 38.7299C128.327 38.7299 129.965 38.1617 131.222 37.0252C132.51 35.8612 133.991 34.7549 135.727 34.7549C138.779 34.7549 140.942 37.7767 138.984 40.1187C138.236 41.0147 137.372 41.8372 136.392 42.5863C133.703 44.6034 130.4 45.612 126.484 45.612C123.32 45.612 120.472 44.9198 117.941 43.5355C115.449 42.1116 113.491 40.1143 112.068 37.5434C110.683 34.9725 109.991 32.0061 109.991 28.6441C109.991 25.2427 110.683 22.2565 112.068 19.6856C113.452 17.1147 115.39 15.1371 117.882 13.7528C120.373 12.3684 123.241 11.6763 126.484 11.6763C129.609 11.6763 132.397 12.3487 134.85 13.6934C137.341 15.0382 139.26 16.9565 140.604 19.4483C141.989 21.9005 142.681 24.7285 142.681 27.9322ZM134.078 25.5591C134.039 23.4233 133.267 21.7225 131.764 20.4568C130.262 19.1516 128.422 18.499 126.247 18.499C124.19 18.499 122.45 19.1318 121.026 20.3975C119.642 21.6236 118.791 23.3441 118.475 25.5591H134.078Z" fill="url(#paint3_linear_357_703)"/>
<path d="M148.447 17.3124C149.515 15.5722 150.899 14.2076 152.6 13.2188C153.712 12.7591 154.507 12.5152 155.101 12.4113C157.07 12.0667 158.533 14.8391 158.533 16.8378V18.2617C158.533 19.474 157.55 20.4568 156.337 20.4568C153.727 20.4568 151.749 21.0699 150.405 22.296C149.099 23.5221 148.447 25.6579 148.447 28.7035V40.9251C148.447 43.2187 146.587 45.078 144.294 45.078C142 45.078 140.141 43.2187 140.141 40.9251V16.3632C140.141 14.0696 142 12.2102 144.294 12.2102C146.587 12.2102 148.447 14.0696 148.447 16.3632V17.3124Z" fill="url(#paint4_linear_357_703)"/>
<path d="M112.329 0C114.864 0 116.75 2.34409 116.206 4.82035L107.211 45.8132C106.811 47.6344 105.198 48.9319 103.333 48.9319C100.798 48.9319 98.9128 46.5878 99.4562 44.1116L108.452 3.1187C108.851 1.29757 110.464 0 112.329 0Z" fill="url(#paint5_linear_357_703)"/>
<path d="M19.2308 45.6369C18.4685 45.6369 17.7355 45.3433 17.1841 44.817L7.59675 35.6673C3.4626 31.7218 3.46978 25.1202 7.61251 21.1838L17.187 12.086C17.7367 11.5637 18.466 11.2725 19.2243 11.2725C21.8989 11.2725 23.1998 14.5401 21.2572 16.3784L13.8923 23.3477C10.9806 26.103 10.9755 30.7368 13.8812 33.4984L21.273 40.5236C23.2138 42.3682 21.9083 45.6369 19.2308 45.6369Z" fill="url(#paint6_linear_357_703)"/>
<path d="M164.769 45.6369C165.531 45.6369 166.264 45.3433 166.816 44.817L176.403 35.6673C180.537 31.7218 180.53 25.1202 176.387 21.1838L166.813 12.086C166.263 11.5637 165.534 11.2725 164.776 11.2725C162.101 11.2725 160.8 14.5401 162.743 16.3784L170.108 23.3477C173.019 26.103 173.024 30.7368 170.119 33.4984L162.727 40.5236C160.786 42.3682 162.092 45.6369 164.769 45.6369Z" fill="url(#paint7_linear_357_703)"/>
<defs>
<linearGradient id="paint0_linear_357_703" x1="23.7305" y1="28.6441" x2="158.533" y2="28.6441" gradientUnits="userSpaceOnUse">
<stop stop-color="#E52D27"/>
<stop offset="1" stop-color="#B31217"/>
</linearGradient>
<linearGradient id="paint1_linear_357_703" x1="23.7305" y1="28.6441" x2="158.533" y2="28.6441" gradientUnits="userSpaceOnUse">
<stop stop-color="#E52D27"/>
<stop offset="1" stop-color="#B31217"/>
</linearGradient>
<linearGradient id="paint2_linear_357_703" x1="23.7305" y1="28.6441" x2="158.533" y2="28.6441" gradientUnits="userSpaceOnUse">
<stop stop-color="#E52D27"/>
<stop offset="1" stop-color="#B31217"/>
</linearGradient>
<linearGradient id="paint3_linear_357_703" x1="23.7305" y1="28.6441" x2="158.533" y2="28.6441" gradientUnits="userSpaceOnUse">
<stop stop-color="#E52D27"/>
<stop offset="1" stop-color="#B31217"/>
</linearGradient>
<linearGradient id="paint4_linear_357_703" x1="23.7305" y1="28.6441" x2="158.533" y2="28.6441" gradientUnits="userSpaceOnUse">
<stop stop-color="#E52D27"/>
<stop offset="1" stop-color="#B31217"/>
</linearGradient>
<linearGradient id="paint5_linear_357_703" x1="98.3984" y1="24.466" x2="117.264" y2="24.466" gradientUnits="userSpaceOnUse">
<stop stop-color="#000C40"/>
<stop offset="1" stop-color="#607D8B"/>
</linearGradient>
<linearGradient id="paint6_linear_357_703" x1="0" y1="28.4547" x2="26.653" y2="28.4547" gradientUnits="userSpaceOnUse">
<stop stop-color="#000C40"/>
<stop offset="1" stop-color="#607D8B"/>
</linearGradient>
<linearGradient id="paint7_linear_357_703" x1="184" y1="28.4547" x2="157.347" y2="28.4547" gradientUnits="userSpaceOnUse">
<stop stop-color="#000C40"/>
<stop offset="1" stop-color="#607D8B"/>
</linearGradient>
</defs>
</svg>
